Coordinates
version=1
nRows=19
nColumns=36
inDegrees=yes

Units are S.I. units (second, meters, Newtons, ...)
If the header above contains a line with 'inDegrees', this indicates whether rotational values are in degrees (yes) or radians (no).

endheader
time	pelvis_tilt	pelvis_list	pelvis_rotation	pelvis_tx	pelvis_ty	pelvis_tz	hip_flexion_r	hip_adduction_r	hip_rotation_r	knee_angle_r	knee_angle_r_beta	ankle_angle_r	subtalar_angle_r	mtp_angle_r	hip_flexion_l	hip_adduction_l	hip_rotation_l	knee_angle_l	knee_angle_l_beta	ankle_angle_l	subtalar_angle_l	mtp_angle_l	lumbar_extension	lumbar_bending	lumbar_rotation	arm_flex_r	arm_add_r	arm_rot_r	elbow_flex_r	pro_sup_r	arm_flex_l	arm_add_l	arm_rot_l	elbow_flex_l	pro_sup_l
      3.65416670	    -11.09571732	     -0.49969712	     -3.35530813	      0.40965527	      0.93055428	     -0.05982966	     16.21753035	     -1.60126695	      2.46188692	     11.42576963	      0.19941730	      2.19799955	     -5.26075952	     -7.49999987	     14.44415384	     -4.19547856	      4.14796489	      9.70533249	      0.16939001	      1.57028790	     -8.06827098	     -7.49999987	     -8.37230198	      0.45348335	     -1.97323581	     11.67283402	    -14.56311076	     -7.39803226	     24.21929896	     72.88181714	     12.37166893	    -15.42953236	      0.73018912	     23.83724418	     64.74918744
      3.65833330	    -11.13799195	     -0.48049857	     -3.57437567	      0.40942612	      0.93070897	     -0.06088605	     15.99330518	     -1.55405720	      2.69037644	     11.22598777	      0.19593045	      2.61126101	     -5.51137817	     -7.49999987	     14.03561835	     -4.22405516	      4.19848620	      9.22637639	      0.16103065	      1.90803571	     -8.28494088	     -7.49999987	     -7.63339941	      0.37941925	     -1.62109524	     11.03879820	    -14.59202882	     -6.74585409	     21.95401884	     73.48099452	     11.53398552	    -15.27116976	      0.07777511	     22.61648559	     64.99295526
      3.66250000	    -11.12348859	     -0.48095156	     -3.80485831	      0.40992545	      0.92497012	     -0.06017914	     15.74159346	     -1.46638697	      3.04267678	     11.02964865	      0.19250368	      3.16041883	     -5.83196782	     -7.49999987	     13.58552393	     -4.26020661	      4.32062623	      8.83663965	      0.15422846	      2.32529962	     -8.49442660	     -7.49999987	     -7.12880659	      0.36316070	     -1.73353802	     10.71991811	    -14.76054896	     -3.92467184	     19.99137028	     74.14094094	     10.03995989	    -15.31647882	     -1.62214180	     22.50471786	     65.92820969
      3.66666670	    -11.20103491	     -0.48363498	     -3.94513044	      0.41074742	      0.92436089	     -0.05880850	     15.59156265	     -1.36722957	      3.42167528	     10.82847849	      0.18899260	      3.59349539	     -6.14179392	     -7.49999987	     13.28920229	     -4.31749817	      4.49187723	      8.44167747	      0.14733507	      2.57011424	     -8.88183941	     -7.49999987	     -6.57783444	      0.31066105	     -1.32884637	      9.77572574	    -14.67371372	     -3.82426443	     18.68689136	     72.48418794	      9.31634905	    -15.23562281	     -2.35050956	     21.84645646	     65.35018979
      3.67083330	    -11.19708641	     -0.51851296	     -3.98489373	      0.41135460	      0.92410970	     -0.05704444	     15.30852133	     -1.21394625	      3.83736983	     10.50100758	      0.18327716	      3.84929587	     -6.40503245	     -7.49999987	     12.94627679	     -4.36922688	      4.64762325	      8.11189770	      0.14157932	      2.65807988	     -9.33983399	     -7.49999987	     -6.17894458	      0.26238943	     -0.96947028	      8.79062336	    -14.60549392	     -3.26179196	     17.59076394	     72.23765997	      8.61464093	    -15.31276206	     -2.45878106	     21.33410001	     65.26912419
      3.67500000	    -11.31003299	     -0.52268166	     -4.00242990	      0.41597196	      0.92443863	     -0.06045642	     14.99546036	     -1.19986023	      4.20965361	      9.97718687	      0.17413476	      4.00497891	     -6.34842357	     -7.49999987	     12.64185882	     -4.36828074	      4.77925841	      7.63611354	      0.13327532	      2.76903604	     -9.49406384	     -7.49999987	     -5.58235630	      0.21498554	     -0.67765006	      7.66130722	    -14.66546124	     -2.76256045	     16.51460141	     72.43930157	      7.69396291	    -15.23338260	     -2.37682369	     20.80159672	     65.35880901
      3.67916670	    -11.31999474	     -0.42720408	     -4.04233668	      0.41556079	      0.93049553	     -0.05901952	     14.55912900	     -1.28972722	      4.39968055	      9.21966994	      0.16091360	      3.86916977	     -6.16156557	     -7.49999987	     12.20627390	     -4.27593438	      4.79146839	      7.06195188	      0.12325431	      2.42585299	     -9.82812523	     -7.49999987	     -5.05773031	      0.12969990	     -0.30400053	      6.80273649	    -14.51209424	     -1.66689299	     15.01161372	     72.81177415	      7.07307122	    -15.15315699	     -2.15891019	     19.89564556	     65.47895261
      3.68333330	    -11.23440615	     -0.38408557	     -4.05775141	      0.41534699	      0.93119663	     -0.05899554	     14.01245547	     -1.37743947	      4.53329721	      8.34355988	      0.14562259	      3.69325661	     -5.82998384	     -7.49999987	     11.75264668	     -4.20222674	      4.98705380	      6.55995791	      0.11449286	      2.20932341	     -9.85584974	     -7.49999987	     -4.72957198	      0.05731297	     -0.45768981	      6.76134166	    -14.68805767	      4.81476625	     12.58978876	     73.66938232	      6.43757626	    -15.36108046	     -0.28757742	     18.55563988	     65.64796669
      3.68750000	    -11.15091716	     -0.33570059	     -4.04093677	      0.41715207	      0.92926481	     -0.05983337	     13.48640552	     -1.48058749	      4.62160734	      7.57924522	      0.13228278	      3.34266216	     -5.46246230	     -7.49999987	     11.30703855	     -4.07192676	      5.23987091	      5.99143556	      0.10457028	      1.92341799	     -9.86298785	     -7.49999987	     -4.65005464	      0.01932427	     -0.22848225	      6.10531044	    -14.47128412	      5.32884505	     11.61152050	     72.34993861	      5.80218410	    -15.29441861	     -0.37530831	     18.14102896	     64.95319632
      3.69166670	    -11.06283164	     -0.31248396	     -4.06150719	      0.41979315	      0.92988714	     -0.06017290	     12.95169161	     -1.57038547	      4.69131550	      6.90943865	      0.12059245	      2.97812183	     -5.21647153	     -7.49999987	     10.85218277	     -3.97979377	      5.34101292	      5.44936546	      0.09510937	      1.84250029	     -9.53781159	     -7.49999987	     -4.38264359	      0.03557570	     -0.28595148	      5.94011535	    -14.54390439	     14.90368103	      9.36360529	     66.27772364	      5.22054280	    -15.57386405	      3.24821780	     16.69659509	     61.22705176
      3.69583330	    -11.00997601	     -0.33474501	     -4.12403842	      0.41960335	      0.92828035	     -0.06104217	     12.52225935	     -1.57153329	      4.85932690	      6.30390687	      0.11002393	      2.71735424	     -4.94990448	     -7.49999987	     10.47470393	     -3.93677629	      5.35579813	      4.93466768	      0.08612620	      1.70254322	     -9.56015994	     -7.49999987	     -4.20053634	      0.08272386	      0.03058315	      4.94162200	    -14.32492047	     17.92028226	      8.27481194	     66.36596634	      4.91313750	    -15.60119170	      5.37648287	     15.34340537	     61.41965297
      3.70000000	    -10.87643596	     -0.32702843	     -4.29825813	      0.41974617	      0.92661252	     -0.06391857	     12.06934354	     -1.68276997	      4.94138775	      5.77552224	      0.10080188	      2.46754548	     -4.79753718	     -7.49999987	      9.98671272	     -3.85839577	      5.45449154	      4.38300160	      0.07649781	      1.77888592	     -9.25588421	     -7.49999987	     -4.14417719	      0.18039915	      0.02931796	      3.91843523	    -13.70718671	     18.59337008	      7.26573991	     65.92641741	      4.18441607	    -15.47375554	      5.74098093	     14.69803990	     61.22247242
      3.70416670	    -10.92745346	     -0.31566451	     -4.40097913	      0.41900063	      0.92528077	     -0.06546644	     11.91324188	     -1.78623317	      5.09047314	      5.33369599	      0.09309056	      2.38104056	     -4.68302668	     -7.49999987	      9.82936261	     -3.74518538	      5.58675873	      3.97482399	      0.06937377	      1.72971388	     -9.49748296	     -7.49999987	     -3.86561621	      0.34808199	      0.20931218	      3.17024610	    -13.71865966	     29.77777809	      6.06981341	     57.62213055	      4.42655900	    -15.66447627	     14.57383219	     12.28600544	     53.98373167
      3.70833330	    -10.95040194	     -0.26973459	     -4.52228349	      0.41887467	      0.92684194	     -0.06684474	     11.69581768	     -1.93301567	      5.13461348	      4.81835585	      0.08409617	      2.19896077	     -4.45416084	     -7.49999987	      9.64297955	     -3.61782878	      5.70049350	      3.56504292	      0.06222174	      1.71489055	     -9.50530867	     -7.49999987	     -3.67705699	      0.48652195	      0.25747041	      2.38429160	    -13.51561927	     32.61244925	      5.35531898	     57.98140256	      4.18795824	    -15.46618358	     16.99505124	     11.00272578	     54.89696301
      3.71250000	    -11.02817592	     -0.22402273	     -4.68326741	      0.41906883	      0.92383839	     -0.06688063	     11.57496418	     -2.04898646	      5.34167407	      4.34111665	      0.07576678	      2.24772209	     -4.30380377	     -7.49999987	      9.54757973	     -3.51696248	      5.52089821	      3.27258058	      0.05711731	      2.06484873	     -9.19759436	     -7.49999987	     -3.44350827	      0.58016363	      0.14922902	      1.75551389	    -13.17526458	     32.53005646	      4.80433967	     57.98911077	      3.61263787	    -15.21365656	     16.95433564	     10.16013527	     55.24285654
      3.71666670	    -10.89556223	     -0.22282842	     -4.71375037	      0.42086229	      0.92342233	     -0.06587273	     11.14977135	     -2.11570592	      5.44205228	      3.84476099	      0.06710374	      2.23493302	     -4.18734262	     -7.49999987	      9.17263461	     -3.48119746	      5.49499221	      2.91423064	      0.05086292	      2.24731352	     -9.09907207	     -7.49999987	     -3.48331912	      0.70054286	     -0.08255925	      1.35594866	    -13.06566704	     33.40339757	      4.56150191	     57.99711664	      3.10794603	    -15.03137350	     17.47099142	      9.29710457	     55.62486765
      3.72083330	    -10.90444176	     -0.26780593	     -4.74310709	      0.42333789	      0.92053226	     -0.06138578	     10.90738921	     -2.01313626	      5.49416993	      3.55312590	      0.06201375	      2.41080634	     -4.23371233	     -7.49999987	      8.97839787	     -3.60664704	      5.56876242	      2.72670520	      0.04758998	      2.47561103	     -9.28356024	     -7.49999987	     -3.19277259	      0.65492134	     -0.12172913	      0.62469910	    -12.73098014	     33.56004366	      4.48746077	     57.97469736	      2.33448525	    -15.08322816	     17.63696215	      8.86957956	     55.64561574
      3.72500000	    -11.06737065	     -0.29235084	     -4.73402343	      0.42415605	      0.92169165	     -0.06050024	     10.76376728	     -1.93286108	      5.49090736	      3.09455302	      0.05401014	      2.51735108	     -4.20334561	     -7.49999987	      8.89161083	     -3.74110112	      5.69301540	      2.41508787	      0.04215124	      2.46217574	     -9.43017057	     -7.49999987	     -2.62826253	      0.56166715	     -0.27583892	      0.11814542	    -12.50765383	     40.48662093	      4.11914221	     48.82770147	      2.14776328	    -15.16198785	     26.21511576	      6.31950587	     51.19075376
      3.72916670	    -11.00763877	     -0.35703749	     -4.72385659	      0.42555830	      0.91950687	     -0.06047828	     10.39696832	     -1.80188039	      5.44106810	      2.73697318	      0.04776919	      2.75251372	     -4.24422415	     -7.49999987	      8.57123150	     -3.92744690	      5.61848199	      2.20234644	      0.03843820	      2.75672606	     -9.19195590	     -7.49999987	     -2.35487083	      0.49946244	     -0.72044412	     -0.02131675	    -12.23540140	     39.83925803	      3.85697371	     49.70448539	      1.12759920	    -15.18583943	     25.68619110	      5.67974443	     51.95808152
